<?xml version="1.0" standalone="no"?><!DOCTYPE svg PUBLIC "-//W3C//DTD SVG 1.1//EN" "http://www.w3.org/Graphics/SVG/1.1/DTD/svg11.dtd"><svg t="1656005631342" class="icon" viewBox="0 0 1024 1024" version="1.1" xmlns="http://www.w3.org/2000/svg" p-id="3912" xmlns:xlink="http://www.w3.org/1999/xlink" width="200" height="200"><defs><style type="text/css">@font-face { font-family: feedback-iconfont; src: url("//at.alicdn.com/t/font_1031158_u69w8yhxdu.woff2?t=1630033759944") format("woff2"), url("//at.alicdn.com/t/font_1031158_u69w8yhxdu.woff?t=1630033759944") format("woff"), url("//at.alicdn.com/t/font_1031158_u69w8yhxdu.ttf?t=1630033759944") format("truetype"); }
</style></defs><path d="M510.6 560.3m-267.9 0a267.9 267.9 0 1 0 535.8 0 267.9 267.9 0 1 0-535.8 0Z" fill="#FFFFFD" p-id="3913"></path><path d="M510.6 833.2c-72.9 0-141.4-28.4-193-79.9-51.5-51.5-79.9-120.1-79.9-193s28.4-141.4 79.9-193 120.1-79.9 193-79.9 141.4 28.4 193 79.9c51.5 51.5 79.9 120.1 79.9 193s-28.4 141.4-79.9 193-120.1 79.9-193 79.9z m0-535.9c-145 0-262.9 117.9-262.9 262.9s117.9 262.9 262.9 262.9 262.9-117.9 262.9-262.9-118-262.9-262.9-262.9z" fill="#5553AA" p-id="3914"></path><path d="M510.6 560.3m-222.1 0a222.1 222.1 0 1 0 444.2 0 222.1 222.1 0 1 0-444.2 0Z" fill="#B5DDFF" p-id="3915"></path><path d="M510.6 787.4c-60.7 0-117.7-23.6-160.6-66.5s-66.5-99.9-66.5-160.6 23.6-117.7 66.5-160.6c42.9-42.9 99.9-66.5 160.6-66.5s117.7 23.6 160.6 66.5c42.9 42.9 66.5 99.9 66.5 160.6S714 678 671.1 720.9s-99.9 66.5-160.5 66.5z m0-444.2c-119.7 0-217.1 97.4-217.1 217.1s97.4 217.1 217.1 217.1c119.7 0 217.1-97.4 217.1-217.1s-97.4-217.1-217.1-217.1z" fill="#5553AA" p-id="3916"></path><path d="M623.6 343.2c0 62.4-113.1 184.7-113.1 184.7s-113-122.2-113-184.7 50.6-113.1 113.1-113.1 113 50.7 113 113.1z" fill="#FFEB99" p-id="3917"></path><path d="M510.6 535.3l-3.7-4c-4.7-5-114.4-124.4-114.4-188.1 0-65.1 53-118.1 118.1-118.1s118.1 53 118.1 118.1c0 63.7-109.7 183-114.4 188.1l-3.7 4z m0-300.1c-59.6 0-108.1 48.5-108.1 108.1 0 53.6 88.8 155.7 108.1 177.2 19.3-21.6 108.1-123.7 108.1-177.2-0.1-59.7-48.6-108.1-108.1-108.1z" fill="#2B2557" p-id="3918"></path><path d="M510.6 336.8m-36.7 0a36.7 36.7 0 1 0 73.4 0 36.7 36.7 0 1 0-73.4 0Z" fill="#FFFFFF" p-id="3919"></path><path d="M510.6 378.5c-23 0-41.7-18.7-41.7-41.7 0-23 18.7-41.7 41.7-41.7 23 0 41.7 18.7 41.7 41.7 0 23-18.7 41.7-41.7 41.7z m0-73.5c-17.5 0-31.7 14.2-31.7 31.7s14.2 31.7 31.7 31.7 31.7-14.2 31.7-31.7S528 305 510.6 305z" fill="#2B2557" p-id="3920"></path><path d="M623.6 343.2c0 62.4-113.1 184.7-113.1 184.7s-113-122.2-113-184.7 50.6-113.1 113.1-113.1 113 50.7 113 113.1z" fill="#FFEB99" p-id="3921"></path><path d="M510.6 532.9c-1.4 0-2.7-0.6-3.7-1.6-4.7-5-114.4-124.4-114.4-188.1 0-65.1 53-118.1 118.1-118.1s118.1 53 118.1 118.1c0 63.7-109.7 183-114.4 188.1-1 1-2.4 1.6-3.7 1.6z m0-297.7c-59.6 0-108.1 48.5-108.1 108.1 0 53.6 88.8 155.7 108.1 177.2 19.3-21.6 108.1-123.7 108.1-177.2-0.1-59.7-48.6-108.1-108.1-108.1z" fill="#5553AA" p-id="3922"></path><path d="M510.6 336.8m-36.7 0a36.7 36.7 0 1 0 73.4 0 36.7 36.7 0 1 0-73.4 0Z" fill="#FFFFFD" p-id="3923"></path><path d="M510.6 378.5c-23 0-41.7-18.7-41.7-41.7 0-23 18.7-41.7 41.7-41.7 23 0 41.7 18.7 41.7 41.7 0 23-18.7 41.7-41.7 41.7z m0-73.5c-17.5 0-31.7 14.2-31.7 31.7s14.2 31.7 31.7 31.7 31.7-14.2 31.7-31.7S528 305 510.6 305zM600.4 564.5h-89.8c-2.8 0-5-2.2-5-5s2.2-5 5-5h89.8c26.1 0 47.4-21.3 47.4-47.4s-21.3-47.4-47.4-47.4c-2.8 0-5-2.2-5-5s2.2-5 5-5c31.7 0 57.4 25.8 57.4 57.4 0 31.7-25.7 57.4-57.4 57.4z" fill="#5553AA" p-id="3924"></path><path d="M420.7 669.4c-31.7 0-57.4-25.8-57.4-57.4 0-31.7 25.8-57.4 57.4-57.4h89.8c2.8 0 5 2.2 5 5s-2.2 5-5 5h-89.8c-26.1 0-47.4 21.3-47.4 47.4s21.3 47.4 47.4 47.4c2.8 0 5 2.2 5 5s-2.2 5-5 5zM510.6 721.6c-2.8 0-5-2.2-5-5 0-26.1-21.3-47.4-47.4-47.4-2.8 0-5-2.2-5-5s2.2-5 5-5c31.7 0 57.4 25.8 57.4 57.4 0 2.8-2.3 5-5 5z" fill="#5553AA" p-id="3925"></path><path d="M510.6 787.4c-2.8 0-5-2.2-5-5v-65.8c0-2.8 2.2-5 5-5s5 2.2 5 5v65.8c0 2.8-2.3 5-5 5zM458.1 669.4h-34c-2.8 0-5-2.2-5-5s2.2-5 5-5h34c2.8 0 5 2.2 5 5s-2.2 5-5 5zM600.4 459.7h-27.7c-2.8 0-5-2.2-5-5s2.2-5 5-5h27.7c2.8 0 5 2.2 5 5s-2.2 5-5 5z" fill="#5553AA" p-id="3926"></path><path d="M510.6 560.3m-20.3 0a20.3 20.3 0 1 0 40.6 0 20.3 20.3 0 1 0-40.6 0Z" fill="#FFFFFD" p-id="3927"></path><path d="M510.6 585.6c-14 0-25.3-11.4-25.3-25.3s11.4-25.3 25.3-25.3 25.3 11.4 25.3 25.3-11.4 25.3-25.3 25.3z m0-40.6c-8.5 0-15.3 6.9-15.3 15.3 0 8.5 6.9 15.3 15.3 15.3 8.5 0 15.3-6.9 15.3-15.3 0-8.5-6.9-15.3-15.3-15.3z" fill="#5553AA" p-id="3928"></path></svg>